<svg width="25" height="25" viewBox="0 0 25 25" fill="none" xmlns="http://www.w3.org/2000/svg">
<g id="Chat Round Check">
<path id="Vector" fill-rule="evenodd" clip-rule="evenodd" d="M22.603 12.3711C22.603 17.8939 18.1259 22.3711 12.603 22.3711C11.0033 22.3711 9.49139 21.9955 8.15056 21.3276C7.79423 21.1502 7.38696 21.0911 7.00241 21.194L4.77637 21.7896C3.81004 22.0481 2.92598 21.1641 3.18454 20.1977L3.78015 17.9717C3.88304 17.5872 3.82396 17.1799 3.64649 16.8236C2.97864 15.4827 2.60303 13.9708 2.60303 12.3711C2.60303 6.84825 7.08018 2.37109 12.603 2.37109C18.1259 2.37109 22.603 6.84825 22.603 12.3711ZM16.1334 9.84076C16.4263 10.1337 16.4263 10.6085 16.1334 10.9014L12.1334 14.9014C11.8447 15.1901 11.3781 15.1949 11.0836 14.9121L9.08363 12.9921C8.78482 12.7053 8.77513 12.2305 9.06199 11.9317C9.34884 11.6329 9.82362 11.6232 10.1224 11.9101L11.5923 13.3211L15.0727 9.84076C15.3656 9.54787 15.8405 9.54787 16.1334 9.84076Z" fill="#F2C94C"/>
</g>
</svg>
