<svg width="20" height="19" viewBox="0 0 20 19" fill="none" xmlns="http://www.w3.org/2000/svg">
<path d="M9.21326 2.48817C9.60192 1.84235 10.5382 1.84235 10.9269 2.48817L12.1557 4.53012C12.2954 4.76213 12.5231 4.9276 12.7869 4.9887L15.1087 5.52641C15.843 5.69648 16.1323 6.58695 15.6382 7.15616L14.0759 8.95587C13.8984 9.16036 13.8114 9.42809 13.8348 9.69787L14.0409 12.0721C14.1061 12.8231 13.3486 13.3734 12.6546 13.0794L10.4602 12.1497C10.2108 12.0441 9.92931 12.0441 9.67998 12.1497L7.48559 13.0794C6.79155 13.3734 6.03407 12.8231 6.09924 12.0721L6.3053 9.69787C6.32871 9.42809 6.24172 9.16036 6.06421 8.95587L4.50194 7.15616C4.00784 6.58695 4.29717 5.69648 5.03148 5.52641L7.35322 4.9887C7.61702 4.9276 7.84477 4.76213 7.9844 4.53012L9.21326 2.48817Z" fill="#CDC8D4"/>
</svg>
