<svg width="20" height="19" viewBox="0 0 20 19" fill="none" xmlns="http://www.w3.org/2000/svg">
<path d="M9.08875 2.48817C9.47741 1.84235 10.4137 1.84235 10.8024 2.48817L12.0312 4.53012C12.1709 4.76213 12.3986 4.9276 12.6624 4.9887L14.9841 5.52641C15.7185 5.69648 16.0078 6.58695 15.5137 7.15616L13.9514 8.95587C13.7739 9.16036 13.6869 9.42809 13.7103 9.69787L13.9164 12.0721C13.9816 12.8231 13.2241 13.3734 12.53 13.0794L10.3356 12.1497C10.0863 12.0441 9.8048 12.0441 9.55547 12.1497L7.36107 13.0794C6.66704 13.3734 5.90956 12.8231 5.97473 12.0721L6.18079 9.69787C6.2042 9.42809 6.11721 9.16036 5.9397 8.95587L4.37743 7.15616C3.88332 6.58695 4.17265 5.69648 4.90697 5.52641L7.22871 4.9887C7.49251 4.9276 7.72026 4.76213 7.85989 4.53012L9.08875 2.48817Z" fill="#F2C94C"/>
<path d="M14.7391 1.22091C14.8646 1.13738 15.0339 1.21745 15.0489 1.36744L15.1347 2.22281C15.1401 2.27669 15.1671 2.32609 15.2096 2.35969L15.8837 2.89311C16.0019 2.98665 15.9781 3.17239 15.8401 3.23305L15.0531 3.57895C15.0035 3.60074 14.9649 3.64171 14.9461 3.69248L14.6471 4.49847C14.5946 4.63981 14.4106 4.67453 14.3103 4.56202L13.7381 3.92044C13.7021 3.88002 13.6512 3.85595 13.5971 3.85372L12.7381 3.81843C12.5875 3.81224 12.4976 3.64797 12.5736 3.51777L13.007 2.77535C13.0343 2.72858 13.0415 2.67273 13.0269 2.62058L12.795 1.79279C12.7543 1.64762 12.8828 1.51137 13.0301 1.54341L13.8701 1.72615C13.923 1.73767 13.9784 1.72723 14.0234 1.69722L14.7391 1.22091Z" fill="#F2C94C"/>
<path d="M18.2537 8.75982C18.4041 8.74958 18.5113 8.90309 18.45 9.04078L18.1 9.82597C18.0779 9.87543 18.0769 9.93173 18.0971 9.98198L18.4177 10.7796C18.4739 10.9195 18.361 11.0689 18.2111 11.0531L17.3562 10.9629C17.3024 10.9572 17.2485 10.9736 17.2069 11.0083L16.5474 11.5597C16.4318 11.6564 16.2548 11.5952 16.2235 11.4478L16.0451 10.6068C16.0339 10.5539 16.0016 10.5077 15.9557 10.4789L15.2275 10.022C15.0998 9.94193 15.1033 9.75471 15.2339 9.67939L15.9786 9.24987C16.0255 9.22281 16.0594 9.17788 16.0726 9.12536L16.2821 8.29162C16.3188 8.14541 16.498 8.09086 16.61 8.19178L17.2486 8.76727C17.2888 8.80352 17.342 8.82191 17.396 8.81823L18.2537 8.75982Z" fill="#F2C94C"/>
<path d="M8.9487 14.1033C8.92486 13.9544 9.06801 13.8337 9.2107 13.8824L10.0244 14.1597C10.0757 14.1772 10.1318 14.1731 10.18 14.1484L10.9453 13.7568C11.0795 13.6881 11.2385 13.787 11.2364 13.9377L11.2241 14.7973C11.2233 14.8514 11.2445 14.9036 11.2829 14.9418L11.8918 15.5486C11.9986 15.655 11.9537 15.8368 11.8097 15.8814L10.9884 16.1353C10.9367 16.1513 10.8936 16.1876 10.8691 16.2359L10.4802 17.0025C10.412 17.1369 10.2252 17.1505 10.1383 17.0273L9.64307 16.3246C9.61187 16.2803 9.56405 16.2506 9.51054 16.2422L8.66124 16.1092C8.5123 16.0859 8.44173 15.9125 8.53208 15.7918L9.04728 15.1036C9.07973 15.0603 9.09322 15.0056 9.08466 14.9521L8.9487 14.1033Z" fill="#F2C94C"/>
<path d="M4.10146 8.64386C4.24937 8.61472 4.37512 8.75347 4.33161 8.89781L4.0835 9.72088C4.06786 9.77273 4.07393 9.82871 4.10031 9.87601L4.51898 10.6268C4.59239 10.7585 4.49929 10.921 4.34857 10.9242L3.48912 10.9426C3.43497 10.9437 3.38361 10.9668 3.34677 11.0065L2.76209 11.6367C2.65955 11.7472 2.47626 11.7088 2.42662 11.5665L2.14356 10.7548C2.12573 10.7036 2.08792 10.6619 2.03878 10.6392L1.25875 10.2778C1.12196 10.2145 1.10179 10.0283 1.22183 9.9371L1.90634 9.41706C1.94946 9.3843 1.97746 9.33545 1.98392 9.28168L2.08653 8.42817C2.10452 8.2785 2.27534 8.20178 2.39917 8.28776L3.10529 8.77807C3.14977 8.80896 3.20488 8.82049 3.25802 8.81002L4.10146 8.64386Z" fill="#F2C94C"/>
<path d="M4.076 1.99499C4.00726 1.86083 4.10602 1.70173 4.25676 1.70381L5.11633 1.71568C5.17048 1.71643 5.22262 1.69518 5.26083 1.6568L5.86733 1.04756C5.97368 0.940727 6.15551 0.985492 6.20011 1.12949L6.45445 1.95066C6.47047 2.0024 6.50679 2.04542 6.5551 2.0699L7.32193 2.45844C7.45641 2.52658 7.47002 2.71334 7.34685 2.80026L6.64446 3.2959C6.60022 3.32713 6.57052 3.37496 6.56217 3.42847L6.4296 4.27784C6.40636 4.42679 6.23294 4.49745 6.11222 4.40717L5.42378 3.89232C5.38041 3.85989 5.32574 3.84643 5.27227 3.85502L4.42351 3.99141C4.27467 4.01533 4.15388 3.87224 4.20244 3.72952L4.47934 2.91569C4.49679 2.86442 4.4927 2.80826 4.468 2.76007L4.076 1.99499Z" fill="#F2C94C"/>
</svg>
