<svg width="21" height="19" viewBox="0 0 21 19" fill="none" xmlns="http://www.w3.org/2000/svg">
<path d="M9.47889 2.48817C9.86755 1.84235 10.8038 1.84235 11.1925 2.48817L12.4214 4.53012C12.561 4.76213 12.7887 4.9276 13.0525 4.9887L15.3743 5.52641C16.1086 5.69648 16.3979 6.58695 15.9038 7.15616L14.3416 8.95587C14.164 9.16036 14.0771 9.42809 14.1005 9.69787L14.3065 12.0721C14.3717 12.8231 13.6142 13.3734 12.9202 13.0794L10.7258 12.1497C10.4764 12.0441 10.1949 12.0441 9.9456 12.1497L7.75121 13.0794C7.05718 13.3734 6.2997 12.8231 6.36487 12.0721L6.57092 9.69787C6.59433 9.42809 6.50734 9.16036 6.32983 8.95587L4.76757 7.15616C4.27346 6.58695 4.56279 5.69648 5.29711 5.52641L7.61885 4.9887C7.88265 4.9276 8.1104 4.76213 8.25003 4.53012L9.47889 2.48817Z" fill="#F2C94C"/>
</svg>
