<svg width="32" height="31" viewBox="0 0 32 31" fill="none" xmlns="http://www.w3.org/2000/svg">
<g id="Component 53">
<path id="Star 1" d="M15.2379 3.28017C15.6266 2.63435 16.5629 2.63435 16.9515 3.28017L19.8262 8.05686C19.9658 8.28887 20.1936 8.45434 20.4574 8.51544L25.8886 9.77332C26.6229 9.94339 26.9122 10.8339 26.4181 11.4031L22.7635 15.6131C22.586 15.8176 22.499 16.0853 22.5225 16.3551L23.0045 21.9092C23.0697 22.6601 22.3122 23.2105 21.6181 22.9165L16.4848 20.7417C16.2355 20.6361 15.954 20.6361 15.7046 20.7417L10.5713 22.9165C9.87728 23.2105 9.1198 22.6601 9.18497 21.9092L9.667 16.3551C9.69041 16.0853 9.60342 15.8176 9.42591 15.6131L5.77132 11.4031C5.27721 10.8339 5.56654 9.94339 6.30086 9.77332L11.7321 8.51544C11.9959 8.45434 12.2236 8.28887 12.3633 8.05686L15.2379 3.28017Z" fill="#F2C94C"/>
<path id="Star 2" d="M24.3588 1.63125L24.5817 3.85435L26.3338 5.24071L24.2884 6.13972L23.5113 8.23448L22.0243 6.567L19.7919 6.47527L20.9182 4.5457L20.3156 2.39424L22.4988 2.86919L24.3588 1.63125Z" fill="#F2C94C"/>
<path id="Star 3" d="M29.8173 16.7638L28.9077 18.8045L29.7409 20.8776L27.519 20.6431L25.8049 22.0762L25.3413 19.8905L23.4486 18.7031L25.384 17.5868L25.9285 15.4199L27.5882 16.9156L29.8173 16.7638Z" fill="#F2C94C"/>
<path id="Star 4" d="M13.725 23.0006L15.8398 23.7213L17.8287 22.7035L17.7968 24.9376L19.3794 26.5147L17.2448 27.1746L16.2339 29.1671L14.9467 27.3409L12.7393 26.9952L14.0783 25.2067L13.725 23.0006Z" fill="#F2C94C"/>
<path id="Star 5" d="M7.79321 15.3874L7.14836 17.5266L8.23649 19.4779L6.00275 19.5257L4.48313 21.1636L3.74745 19.0539L1.72015 18.1148L3.49921 16.7632L3.76588 14.5449L5.60109 15.8192L7.79321 15.3874Z" fill="#F2C94C"/>
<path id="Star 6" d="M6.0564 3.42969L8.29044 3.46054L9.86673 1.87712L10.5278 4.01135L12.5208 5.02119L10.6953 6.30938L10.3507 8.5169L8.56148 7.17881L6.35552 7.5333L7.07521 5.41813L6.0564 3.42969Z" fill="#F2C94C"/>
</g>
</svg>
