<svg width="25" height="25" viewBox="0 0 25 25" fill="none" xmlns="http://www.w3.org/2000/svg">
<g id="Database">
<g id="Vector">
<path d="M20.0386 18.3711C20.0386 20.5802 16.4569 22.3711 12.0386 22.3711C7.6203 22.3711 4.03857 20.5802 4.03857 18.3711V14.3451C4.54079 14.9617 5.25352 15.4739 6.04631 15.8703C7.61861 16.6565 9.73825 17.1211 12.0386 17.1211C14.3389 17.1211 16.4585 16.6565 18.0308 15.8703C18.8236 15.4739 19.5364 14.9617 20.0386 14.3451V18.3711Z" fill="#F2C94C"/>
<path d="M12.0386 11.1211C14.3389 11.1211 16.4585 10.6565 18.0308 9.87034C18.8236 9.47395 19.5364 8.96169 20.0386 8.34506V12.3711C20.0386 12.8711 18.2529 13.9622 17.36 14.5287C16.0369 15.1903 14.1565 15.6211 12.0386 15.6211C9.92062 15.6211 8.04026 15.1903 6.71713 14.5287C5.53857 13.9394 4.03857 12.8711 4.03857 12.3711V8.34506C4.54079 8.96169 5.25352 9.47395 6.04631 9.87034C7.61861 10.6565 9.73825 11.1211 12.0386 11.1211Z" fill="#F2C94C"/>
<path d="M17.36 8.5287C16.0369 9.19026 14.1565 9.62109 12.0386 9.62109C9.92062 9.62109 8.04026 9.19026 6.71713 8.5287C6.20241 8.32705 5.04494 7.68602 4.24007 6.65044C4.10311 6.47423 4.04433 6.24963 4.07846 6.02907C4.1014 5.88079 4.13337 5.72804 4.17436 5.63335C4.86673 3.77663 8.12437 2.37109 12.0386 2.37109C15.9528 2.37109 19.2104 3.77663 19.9028 5.63335C19.9438 5.72804 19.9757 5.88079 19.9987 6.02907C20.0328 6.24963 19.974 6.47423 19.8371 6.65044C19.0322 7.68602 17.8747 8.32705 17.36 8.5287Z" fill="#F2C94C"/>
</g>
</g>
</svg>
