<svg width="25" height="24" viewBox="0 0 25 24" fill="none" xmlns="http://www.w3.org/2000/svg">
<g id="Document Text">
<path id="Vector" d="M3.32812 10C3.32812 6.22876 3.32812 4.34315 4.4997 3.17157C5.67127 2 7.55689 2 11.3281 2H13.3281C17.0994 2 18.985 2 20.1566 3.17157C21.3281 4.34315 21.3281 6.22876 21.3281 10V14C21.3281 17.7712 21.3281 19.6569 20.1566 20.8284C18.985 22 17.0994 22 13.3281 22H11.3281C7.55689 22 5.67127 22 4.4997 20.8284C3.32812 19.6569 3.32812 17.7712 3.32812 14V10Z" stroke="#F5EFFC" stroke-width="1.5"/>
<path id="Vector_2" d="M8.32812 12H16.3281" stroke="#F5EFFC" stroke-width="1.5" stroke-linecap="round"/>
<path id="Vector_3" d="M8.32812 8H16.3281" stroke="#F5EFFC" stroke-width="1.5" stroke-linecap="round"/>
<path id="Vector_4" d="M8.32812 16H13.3281" stroke="#F5EFFC" stroke-width="1.5" stroke-linecap="round"/>
</g>
</svg>
