<svg width="24" height="24" viewBox="0 0 24 24" fill="none" xmlns="http://www.w3.org/2000/svg">
<g id="fi:share-2">
<path id="Vector" d="M17.9961 22C19.6529 22 20.9961 20.6569 20.9961 19C20.9961 17.3431 19.6529 16 17.9961 16C16.3392 16 14.9961 17.3431 14.9961 19C14.9961 20.6569 16.3392 22 17.9961 22Z" stroke="#F5EFFC" stroke-width="2" stroke-linecap="round" stroke-linejoin="round"/>
<path id="Vector_2" d="M5.99609 15C7.65295 15 8.99609 13.6569 8.99609 12C8.99609 10.3431 7.65295 9 5.99609 9C4.33924 9 2.99609 10.3431 2.99609 12C2.99609 13.6569 4.33924 15 5.99609 15Z" stroke="#F5EFFC" stroke-width="2" stroke-linecap="round" stroke-linejoin="round"/>
<path id="Vector_3" d="M8.58594 13.51L15.4159 17.49" stroke="#F5EFFC" stroke-width="2" stroke-linecap="round" stroke-linejoin="round"/>
<path id="Vector_4" d="M17.9961 8C19.6529 8 20.9961 6.65685 20.9961 5C20.9961 3.34315 19.6529 2 17.9961 2C16.3392 2 14.9961 3.34315 14.9961 5C14.9961 6.65685 16.3392 8 17.9961 8Z" stroke="#F5EFFC" stroke-width="2" stroke-linecap="round" stroke-linejoin="round"/>
<path id="Vector_5" d="M15.4062 6.51001L8.58618 10.49" stroke="#F5EFFC" stroke-width="2" stroke-linecap="round" stroke-linejoin="round"/>
</g>
</svg>
