<svg width="25" height="24" viewBox="0 0 25 24" fill="none" xmlns="http://www.w3.org/2000/svg">
<g id="fi:share-2">
<path id="Vector" d="M18.3281 22C19.985 22 21.3281 20.6569 21.3281 19C21.3281 17.3431 19.985 16 18.3281 16C16.6713 16 15.3281 17.3431 15.3281 19C15.3281 20.6569 16.6713 22 18.3281 22Z" stroke="#F5EFFC" stroke-width="2" stroke-linecap="round" stroke-linejoin="round"/>
<path id="Vector_2" d="M6.32812 15C7.98498 15 9.32812 13.6569 9.32812 12C9.32812 10.3431 7.98498 9 6.32812 9C4.67127 9 3.32812 10.3431 3.32812 12C3.32812 13.6569 4.67127 15 6.32812 15Z" stroke="#F5EFFC" stroke-width="2" stroke-linecap="round" stroke-linejoin="round"/>
<path id="Vector_3" d="M8.91797 13.51L15.748 17.49" stroke="#F5EFFC" stroke-width="2" stroke-linecap="round" stroke-linejoin="round"/>
<path id="Vector_4" d="M18.3281 8C19.985 8 21.3281 6.65685 21.3281 5C21.3281 3.34315 19.985 2 18.3281 2C16.6713 2 15.3281 3.34315 15.3281 5C15.3281 6.65685 16.6713 8 18.3281 8Z" stroke="#F5EFFC" stroke-width="2" stroke-linecap="round" stroke-linejoin="round"/>
<path id="Vector_5" d="M15.738 6.51001L8.91797 10.49" stroke="#F5EFFC" stroke-width="2" stroke-linecap="round" stroke-linejoin="round"/>
</g>
</svg>
