<svg width="25" height="25" viewBox="0 0 25 25" fill="none" xmlns="http://www.w3.org/2000/svg">
<g id="File Text">
<path id="Vector" d="M16.0414 4.06781L15.5397 4.62528L16.0414 4.06781ZM20.0002 7.6307L19.4984 8.18818L20.0002 7.6307ZM22.3024 10.1683L21.6173 10.4734V10.4734L22.3024 10.1683ZM3.82001 20.8426L4.35034 20.3123H4.35034L3.82001 20.8426ZM21.4769 20.8426L20.9465 20.3123L20.9465 20.3123L21.4769 20.8426ZM14.6484 21.2642H10.6484V22.7642H14.6484V21.2642ZM3.39844 14.0142V10.0142H1.89844V14.0142H3.39844ZM21.8984 13.5771V14.0142H23.3984V13.5771H21.8984ZM15.5397 4.62528L19.4984 8.18818L20.5019 7.07323L16.5431 3.51034L15.5397 4.62528ZM23.3984 13.5771C23.3984 11.8887 23.4136 10.8197 22.9876 9.86313L21.6173 10.4734C21.8833 11.0706 21.8984 11.7562 21.8984 13.5771H23.3984ZM19.4984 8.18818C20.8519 9.40626 21.3513 9.87615 21.6173 10.4734L22.9876 9.86313C22.5615 8.90657 21.7568 8.20269 20.5019 7.07323L19.4984 8.18818ZM10.6782 2.76416C12.26 2.76416 12.8569 2.77574 13.389 2.97989L13.9264 1.57946C13.0745 1.25258 12.1464 1.26416 10.6782 1.26416V2.76416ZM16.5431 3.51034C15.4571 2.53294 14.7781 1.9063 13.9264 1.57946L13.389 2.97989C13.9211 3.18409 14.3699 3.57253 15.5397 4.62528L16.5431 3.51034ZM10.6484 21.2642C8.74162 21.2642 7.38695 21.2626 6.35929 21.1244C5.3532 20.9891 4.77355 20.7355 4.35034 20.3123L3.28968 21.3729C4.03804 22.1213 4.98699 22.4534 6.15941 22.611C7.31026 22.7658 8.78402 22.7642 10.6484 22.7642V21.2642ZM1.89844 14.0142C1.89844 15.8786 1.89684 17.3523 2.05157 18.5032C2.2092 19.6756 2.54132 20.6246 3.28968 21.3729L4.35034 20.3123C3.92713 19.889 3.67346 19.3094 3.5382 18.3033C3.40003 17.2756 3.39844 15.921 3.39844 14.0142H1.89844ZM14.6484 22.7642C16.5129 22.7642 17.9866 22.7658 19.1375 22.611C20.3099 22.4534 21.2588 22.1213 22.0072 21.3729L20.9465 20.3123C20.5233 20.7355 19.9437 20.9891 18.9376 21.1244C17.9099 21.2626 16.5553 21.2642 14.6484 21.2642V22.7642ZM21.8984 14.0142C21.8984 15.921 21.8968 17.2756 21.7587 18.3033C21.6234 19.3094 21.3697 19.889 20.9465 20.3123L22.0072 21.3729C22.7556 20.6246 23.0877 19.6756 23.2453 18.5032C23.4 17.3523 23.3984 15.8786 23.3984 14.0142H21.8984ZM3.39844 10.0142C3.39844 8.10734 3.40003 6.75267 3.5382 5.72501C3.67346 4.71892 3.92713 4.13927 4.35034 3.71606L3.28968 2.6554C2.54132 3.40377 2.2092 4.35272 2.05157 5.52514C1.89684 6.67598 1.89844 8.14974 1.89844 10.0142H3.39844ZM10.6782 1.26416C8.80381 1.26416 7.32285 1.26258 6.16731 1.41723C4.99075 1.5747 4.03863 1.90646 3.28968 2.6554L4.35034 3.71606C4.77297 3.29344 5.3544 3.03941 6.36629 2.90398C7.39918 2.76574 8.76155 2.76416 10.6782 2.76416V1.26416Z" fill="#F5EFFC"/>
<path id="Vector_2" d="M6.64844 14.5142H14.6484" stroke="#F5EFFC" stroke-width="1.5" stroke-linecap="round"/>
<path id="Vector_3" d="M6.64844 18.0142H12.1484" stroke="#F5EFFC" stroke-width="1.5" stroke-linecap="round"/>
<path id="Vector_4" d="M13.6484 2.51416V5.01416C13.6484 7.37118 13.6484 8.54969 14.3807 9.28193C15.1129 10.0142 16.2914 10.0142 18.6484 10.0142H22.6484" stroke="#F5EFFC" stroke-width="1.5"/>
</g>
</svg>
