<svg width="41" height="41" viewBox="0 0 41 41" fill="none" xmlns="http://www.w3.org/2000/svg">
<g id="Folders" clip-path="url(#clip0_3829_399)">
<path id="Vector" d="M31.8984 17.5142V31.403C31.8984 31.6977 31.7814 31.9803 31.573 32.1887C31.3646 32.3971 31.082 32.5142 30.7873 32.5142H6.89844C6.56692 32.5142 6.24897 32.3825 6.01455 32.148C5.78013 31.9136 5.64844 31.5957 5.64844 31.2642V13.7642C5.64844 13.4326 5.78013 13.1147 6.01455 12.8803C6.24897 12.6459 6.56692 12.5142 6.89844 12.5142H13.9818C14.2522 12.5142 14.5154 12.6019 14.7318 12.7642L19.0651 16.0142C19.2815 16.1764 19.5446 16.2642 19.8151 16.2642H30.6484C30.98 16.2642 31.2979 16.3959 31.5323 16.6303C31.7667 16.8647 31.8984 17.1826 31.8984 17.5142Z" stroke="#F5EFFC" stroke-width="2" stroke-linecap="round" stroke-linejoin="round"/>
<path id="Vector_2" d="M10.6484 12.5142V8.76416C10.6484 8.43264 10.7801 8.1147 11.0146 7.88028C11.249 7.64586 11.5669 7.51416 11.8984 7.51416H18.9818C19.2522 7.51416 19.5154 7.60188 19.7318 7.76416L24.0651 11.0142C24.2815 11.1764 24.5446 11.2642 24.8151 11.2642H35.6484C35.98 11.2642 36.2979 11.3959 36.5323 11.6303C36.7667 11.8647 36.8984 12.1826 36.8984 12.5142V26.403C36.8984 26.549 36.8697 26.6934 36.8139 26.8283C36.758 26.9631 36.6762 27.0855 36.573 27.1887C36.4698 27.2919 36.3473 27.3737 36.2125 27.4296C36.0777 27.4854 35.9332 27.5142 35.7873 27.5142H31.8984" stroke="#F5EFFC" stroke-width="2" stroke-linecap="round" stroke-linejoin="round"/>
</g>
<defs>
<clipPath id="clip0_3829_399">
<rect width="40" height="40" fill="white" transform="translate(0.648438 0.0141602)"/>
</clipPath>
</defs>
</svg>
