<svg width="25" height="25" viewBox="0 0 25 25" fill="none" xmlns="http://www.w3.org/2000/svg">
<g id="Heart Angle">
<path id="Vector (Stroke)" fill-rule="evenodd" clip-rule="evenodd" d="M5.99936 4.9241C4.34037 5.68243 3.125 7.48614 3.125 9.63701C3.125 11.8344 4.02422 13.5281 5.31329 14.9797C6.37572 16.176 7.66184 17.1675 8.91613 18.1345C9.21404 18.3642 9.51015 18.5925 9.80105 18.8218C10.3271 19.2365 10.7963 19.6004 11.2486 19.8647C11.7011 20.1292 12.0654 20.2499 12.375 20.2499C12.6846 20.2499 13.0489 20.1292 13.5014 19.8647C13.9537 19.6004 14.4229 19.2365 14.949 18.8218C15.2399 18.5925 15.536 18.3642 15.8339 18.1345C17.0882 17.1675 18.3743 16.176 19.4367 14.9797C20.7258 13.5281 21.625 11.8344 21.625 9.63701C21.625 7.48614 20.4096 5.68243 18.7506 4.9241C17.2773 4.25065 15.3412 4.35585 13.4475 6.01217L14.9052 7.4694C15.1982 7.76224 15.1983 8.23711 14.9054 8.53006C14.6126 8.823 14.1377 8.82309 13.8448 8.53025L11.8448 6.53097L11.8346 6.52065C9.77666 4.38249 7.61107 4.18739 5.99936 4.9241ZM12.375 4.95873C10.0629 2.89015 7.47396 2.60078 5.37576 3.55987C3.15971 4.57283 1.625 6.92494 1.625 9.63701C1.625 12.3025 2.7355 14.336 4.19172 15.9757C5.35787 17.2888 6.78522 18.3879 8.04583 19.3585C8.33159 19.5785 8.60878 19.792 8.87242 19.9998C9.38465 20.4036 9.93454 20.8342 10.4918 21.1598C11.0489 21.4853 11.6846 21.7499 12.375 21.7499C13.0654 21.7499 13.7011 21.4853 14.2582 21.1598C14.8155 20.8342 15.3653 20.4036 15.8776 19.9998C16.1412 19.792 16.4184 19.5785 16.7042 19.3585C17.9648 18.3879 19.3921 17.2888 20.5583 15.9757C22.0145 14.336 23.125 12.3025 23.125 9.63701C23.125 6.92494 21.5903 4.57283 19.3742 3.55987C17.276 2.60078 14.6871 2.89015 12.375 4.95873Z" fill="#F5EFFC"/>
</g>
</svg>
