<svg width="31" height="31" viewBox="0 0 31 31" fill="none" xmlns="http://www.w3.org/2000/svg">
<path d="M12.0978 19.8621C11.6819 19.5538 11.0947 19.641 10.7864 20.057C10.4781 20.4729 10.5653 21.0601 10.9813 21.3684C12.1968 22.2694 13.6833 22.8027 15.2896 22.8027C16.8958 22.8027 18.3823 22.2694 19.5978 21.3684C20.0138 21.0601 20.101 20.4729 19.7927 20.057C19.4844 19.641 18.8972 19.5538 18.4813 19.8621C17.5709 20.5369 16.4719 20.9277 15.2896 20.9277C14.1072 20.9277 13.0082 20.5369 12.0978 19.8621Z" fill="#8956CD"/>
<path fill-rule="evenodd" clip-rule="evenodd" d="M15.2896 2.17773C14.4044 2.17773 13.6002 2.43126 12.7277 2.85553C11.8844 3.26567 10.9101 3.87035 9.69312 4.62564L7.10991 6.22886C5.95841 6.9435 5.03635 7.51574 4.32568 8.05999C3.58974 8.6236 3.02449 9.1976 2.61619 9.94352C2.20874 10.6879 2.02526 11.4799 1.93729 12.4161C1.85203 13.3234 1.85204 14.4329 1.85205 15.8243V17.8401C1.85203 20.2199 1.85202 22.0985 2.04293 23.5672C2.23877 25.0739 2.65025 26.2903 3.58 27.252C4.51403 28.2182 5.70262 28.6498 7.17406 28.8544C8.60016 29.0528 10.4215 29.0528 12.7169 29.0527H17.8622C20.1575 29.0528 21.9789 29.0528 23.405 28.8544C24.8765 28.6498 26.0651 28.2182 26.9991 27.252C27.9288 26.2903 28.3403 25.0739 28.5362 23.5672C28.7271 22.0985 28.7271 20.2199 28.7271 17.8401V15.8242C28.7271 14.4329 28.7271 13.3234 28.6418 12.4161C28.5538 11.4799 28.3704 10.6879 27.9629 9.94352C27.5546 9.1976 26.9894 8.6236 26.2534 8.05999C25.5428 7.51574 24.6207 6.94351 23.4692 6.22888L20.886 4.62563C19.669 3.87034 18.6947 3.26566 17.8514 2.85553C16.9789 2.43126 16.1747 2.17773 15.2896 2.17773ZM10.639 6.24538C11.9087 5.45737 12.8014 4.90465 13.5477 4.54173C14.2748 4.18814 14.7898 4.05273 15.2896 4.05273C15.7893 4.05273 16.3043 4.18814 17.0314 4.54173C17.7777 4.90465 18.6704 5.45737 19.9401 6.24538L22.4401 7.79695C23.6412 8.54235 24.4844 9.06692 25.1134 9.54861C25.7254 10.0173 26.0775 10.4041 26.3182 10.8438C26.5597 11.2851 26.7008 11.801 26.775 12.5915C26.8511 13.401 26.8521 14.4225 26.8521 15.8701V17.7714C26.8521 20.2351 26.8502 21.9917 26.6768 23.3256C26.5065 24.6356 26.1858 25.3957 25.6511 25.9488C25.1206 26.4975 24.3985 26.8232 23.1468 26.9973C21.8648 27.1756 20.174 27.1777 17.7896 27.1777H12.7896C10.4051 27.1777 8.71434 27.1756 7.43233 26.9973C6.18062 26.8232 5.45847 26.4975 4.92804 25.9488C4.39332 25.3957 4.07257 24.6356 3.90229 23.3256C3.72891 21.9917 3.72705 20.2351 3.72705 17.7714V15.8701C3.72705 14.4225 3.728 13.401 3.80406 12.5915C3.87834 11.801 4.01936 11.2851 4.26092 10.8438C4.50162 10.4041 4.85371 10.0173 5.4657 9.54861C6.09467 9.06692 6.93792 8.54235 8.13896 7.79695L10.639 6.24538Z" fill="#8956CD"/>
</svg>
