<svg width="31" height="31" viewBox="0 0 31 31" fill="none" xmlns="http://www.w3.org/2000/svg">
<path fill-rule="evenodd" clip-rule="evenodd" d="M27.5396 15.6152C27.5396 22.5188 21.9431 28.1152 15.0396 28.1152C8.13599 28.1152 2.53955 22.5188 2.53955 15.6152C2.53955 8.71167 8.13599 3.11523 15.0396 3.11523C21.9431 3.11523 27.5396 8.71167 27.5396 15.6152ZM15.0396 22.8027C15.5573 22.8027 15.9771 22.383 15.9771 21.8652V14.3652C15.9771 13.8475 15.5573 13.4277 15.0396 13.4277C14.5218 13.4277 14.1021 13.8475 14.1021 14.3652V21.8652C14.1021 22.383 14.5218 22.8027 15.0396 22.8027ZM15.0396 9.36523C15.7299 9.36523 16.2896 9.92488 16.2896 10.6152C16.2896 11.3056 15.7299 11.8652 15.0396 11.8652C14.3492 11.8652 13.7896 11.3056 13.7896 10.6152C13.7896 9.92488 14.3492 9.36523 15.0396 9.36523Z" fill="#8956CD"/>
</svg>
