<svg width="50" height="51" viewBox="0 0 50 51" fill="none" xmlns="http://www.w3.org/2000/svg">
<g id="Cv">
<path id="Vector" d="M35.6936 3.7582C35.6298 3.69258 35.5536 3.64041 35.4694 3.60478C35.3851 3.56915 35.2946 3.55079 35.2031 3.55078H18.0156C17.0576 3.55184 16.1392 3.93287 15.4618 4.61026C14.7844 5.28765 14.4034 6.20609 14.4023 7.16406V10.4099H9.22656C8.26859 10.4109 7.35017 10.792 6.67279 11.4694C5.9954 12.1468 5.61437 13.0652 5.61328 14.0231V44.4395C5.61437 45.3974 5.9954 46.3158 6.67279 46.9932C7.35017 47.6706 8.26859 48.0517 9.22656 48.0527H31.9844C32.9423 48.0517 33.8608 47.6706 34.5382 46.9932C35.2155 46.3158 35.5966 45.3974 35.5977 44.4395V41.1906H40.7734C41.7314 41.1896 42.6499 40.8085 43.3272 40.1311C44.0046 39.4538 44.3857 38.5353 44.3867 37.5773V12.99C44.3867 12.8122 44.3174 12.6414 44.1936 12.5139L35.6936 3.7582ZM35.8866 5.91992L42.0863 12.3066H36.7952C36.5544 12.3064 36.3236 12.2106 36.1533 12.0403C35.9831 11.8701 35.8873 11.6392 35.887 11.3984V5.91992H35.8866ZM34.2305 44.4395C34.2298 45.035 33.9929 45.6059 33.5719 46.0269C33.1508 46.448 32.5799 46.6849 31.9844 46.6855H9.22695C8.63146 46.6849 8.06055 46.448 7.63947 46.0269C7.21839 45.6059 6.98153 45.035 6.98086 44.4395V14.023C6.98153 13.4276 7.21839 12.8566 7.63947 12.4356C8.06055 12.0145 8.63146 11.7776 9.22695 11.777H14.4027V37.5777C14.4038 38.5357 14.7848 39.4541 15.4622 40.1315C16.1396 40.8089 17.058 41.19 18.016 41.191H34.2305V44.4395ZM40.7734 39.8234H18.016C17.4205 39.8228 16.8496 39.5859 16.4285 39.1649C16.0074 38.7438 15.7706 38.1728 15.7699 37.5773V7.16377C15.7706 6.56827 16.0074 5.99734 16.4285 5.57626C16.8496 5.15517 17.4205 4.91832 18.016 4.91768H34.5199V11.3979C34.5206 12.0012 34.7606 12.5796 35.1871 13.0061C35.6137 13.4327 36.1921 13.6726 36.7953 13.6733H43.0195V37.5774C43.0188 38.1729 42.782 38.7438 42.3609 39.1649C41.9398 39.5859 41.3689 39.8228 40.7734 39.8234Z" fill="#F5EFFC"/>
<path id="Vector_2" d="M38.3105 33.9366H19.9883C19.807 33.9366 19.6331 34.0086 19.5049 34.1368C19.3767 34.265 19.3047 34.4389 19.3047 34.6202C19.3047 34.8015 19.3767 34.9754 19.5049 35.1036C19.6331 35.2318 19.807 35.3038 19.9883 35.3038H38.3105C38.4918 35.3038 38.6657 35.2318 38.7939 35.1036C38.9221 34.9754 38.9941 34.8015 38.9941 34.6202C38.9941 34.4389 38.9221 34.265 38.7939 34.1368C38.6657 34.0086 38.4918 33.9366 38.3105 33.9366ZM19.9883 31.013H30.957C31.1383 31.013 31.3122 30.941 31.4404 30.8128C31.5686 30.6846 31.6406 30.5107 31.6406 30.3294C31.6406 30.1481 31.5686 29.9742 31.4404 29.846C31.3122 29.7178 31.1383 29.6458 30.957 29.6458H19.9883C19.807 29.6458 19.6331 29.7178 19.5049 29.846C19.3767 29.9742 19.3047 30.1481 19.3047 30.3294C19.3047 30.5107 19.3767 30.6846 19.5049 30.8128C19.6331 30.941 19.807 31.013 19.9883 31.013ZM22.5092 25.9538C22.5112 26.1079 22.5738 26.255 22.6835 26.3632C22.7931 26.4714 22.941 26.5321 23.0951 26.5321H23.1013L35.7648 26.4019C35.8419 26.4011 35.9181 26.3852 35.989 26.3549C36.0599 26.3246 36.1241 26.2806 36.178 26.2255C36.2318 26.1704 36.2743 26.1051 36.3029 26.0336C36.3315 25.962 36.3457 25.8855 36.3447 25.8084L36.2988 22.3009C36.3395 21.8061 36.2765 21.3082 36.1139 20.8391C35.9513 20.37 35.6926 19.94 35.3544 19.5765C35.0162 19.2131 34.6059 18.9241 34.1497 18.7282C33.6936 18.5323 33.2015 18.4336 32.7051 18.4386L31.9799 18.4459C31.8524 18.4472 31.7288 18.49 31.6278 18.5679C31.5269 18.6458 31.4541 18.7545 31.4205 18.8775L30.6842 21.5765L30.2996 20.9059L30.7826 19.3072C30.8091 19.2197 30.8146 19.1272 30.7989 19.0371C30.7832 18.947 30.7466 18.8619 30.6921 18.7885C30.6376 18.715 30.5667 18.6554 30.485 18.6143C30.4033 18.5732 30.3131 18.5518 30.2217 18.5518H30.2157L28.3818 18.5705C28.2899 18.5714 28.1995 18.594 28.1179 18.6363C28.0363 18.6787 27.9658 18.7397 27.9121 18.8143C27.8584 18.8889 27.8231 18.9752 27.8089 19.066C27.7947 19.1568 27.8021 19.2497 27.8305 19.3372L28.3491 20.9354L28.0649 21.4977L27.368 18.9387C27.3342 18.8146 27.2605 18.7051 27.1584 18.6271C27.0562 18.549 26.9312 18.5067 26.8026 18.5067H25.9797C25.4831 18.5117 24.9929 18.6203 24.5406 18.8254C24.0883 19.0306 23.6838 19.3279 23.3529 19.6983C23.0221 20.0687 22.7721 20.504 22.6191 20.9765C22.466 21.449 22.4132 21.9482 22.4641 22.4423L22.5092 25.9538ZM29.4299 19.7323L29.3143 20.1148L29.1909 19.7348L29.4299 19.7323ZM24.2192 20.4878C24.441 20.2374 24.7127 20.0361 25.0168 19.8969C25.3209 19.7576 25.6508 19.6835 25.9853 19.6792H26.3546L27.334 23.2772C27.3628 23.3831 27.4208 23.4788 27.5014 23.5533C27.5819 23.6279 27.6818 23.6783 27.7896 23.6989C27.8974 23.7194 28.0088 23.7093 28.1111 23.6696C28.2134 23.63 28.3026 23.5623 28.3684 23.4745C28.389 23.4471 28.4071 23.4178 28.4226 23.3872L29.3351 21.5817L30.3688 23.3846C30.4265 23.485 30.5125 23.5662 30.6163 23.6178C30.72 23.6693 30.8366 23.689 30.9515 23.6743C31.0664 23.6596 31.1743 23.6112 31.2617 23.5352C31.3491 23.4592 31.412 23.359 31.4425 23.2473L32.4337 19.6137L32.7161 19.6108C33.0514 19.6074 33.3837 19.6744 33.6915 19.8074C33.9993 19.9404 34.2758 20.1364 34.5032 20.3829C34.7305 20.6294 34.9036 20.9208 35.0114 21.2383C35.1191 21.5558 35.1591 21.8924 35.1287 22.2264C35.1269 22.2466 35.1261 22.2669 35.1264 22.2872L35.1646 25.2364L23.6729 25.3545L23.6346 22.4007C23.6343 22.3815 23.6331 22.3623 23.631 22.3432C23.5921 22.01 23.6244 21.6722 23.7258 21.3523C23.8272 21.0325 23.9954 20.7378 24.2192 20.4878ZM29.2047 18.3882C29.2166 18.3882 29.2285 18.3882 29.2404 18.3882C29.6945 18.3836 30.1433 18.2896 30.5611 18.1116C30.9789 17.9335 31.3575 17.6749 31.6754 17.3506C31.9933 17.0262 32.2441 16.6424 32.4137 16.2211C32.5832 15.7998 32.6681 15.3492 32.6635 14.8951L32.6362 12.2116C32.6272 11.4933 32.3341 10.8078 31.821 10.3051C31.3079 9.8023 30.6166 9.52323 29.8982 9.52889L26.8287 9.56005C26.6795 9.56155 26.532 9.59244 26.3947 9.65094C26.2574 9.70944 26.133 9.79441 26.0286 9.901C25.9241 10.0076 25.8417 10.1337 25.786 10.2722C25.7303 10.4106 25.7024 10.5587 25.7039 10.7079L25.7472 14.9657C25.7575 15.8763 26.1263 16.746 26.7734 17.3866C27.4206 18.0272 28.2941 18.3871 29.2047 18.3882ZM27.2949 11.8573C27.1533 11.9321 27.0178 12.018 26.8896 12.114L26.8831 11.4649C27.0117 11.5968 27.1492 11.7284 27.2949 11.8573ZM30.8381 16.5302C30.5216 16.8531 30.1164 17.075 29.6738 17.1678C29.2312 17.2605 28.7711 17.2199 28.3515 17.0511C27.932 16.8823 27.572 16.593 27.3169 16.2195C27.0618 15.8461 26.9232 15.4055 26.9186 14.9533L26.9081 13.9254C27.2412 13.2256 27.7745 12.8003 28.4608 12.6878C29.1268 13.073 29.8801 13.2819 30.6493 13.2949C30.9266 13.2947 31.203 13.2645 31.4737 13.2048L31.491 14.9069C31.495 15.2072 31.4393 15.5053 31.3273 15.7839C31.2153 16.0625 31.0491 16.3162 30.8384 16.5302H30.8381ZM29.9098 10.7001C30.2789 10.6971 30.6369 10.8268 30.9184 11.0656C31.2 11.3043 31.3864 11.6363 31.4438 12.001C30.5056 12.2894 29.5338 12.0752 28.5498 11.3589C28.2869 11.1658 28.0394 10.9527 27.8095 10.7215L29.9098 10.7001Z" fill="#F5EFFC"/>
</g>
</svg>
