<svg width="22" height="22" viewBox="0 0 22 22" fill="none" xmlns="http://www.w3.org/2000/svg">
<path d="M1.81641 11.4861C1.81641 8.18625 1.81641 6.53634 2.84153 5.51121C3.86666 4.48608 5.51657 4.48608 8.81641 4.48608H12.3164C15.6162 4.48608 17.2662 4.48608 18.2913 5.51121C19.3164 6.53634 19.3164 8.18625 19.3164 11.4861C19.3164 14.7859 19.3164 16.4358 18.2913 17.461C17.2662 18.4861 15.6162 18.4861 12.3164 18.4861H8.81641C5.51657 18.4861 3.86666 18.4861 2.84153 17.461C1.81641 16.4358 1.81641 14.7859 1.81641 11.4861Z" stroke="#F5EFFC" stroke-width="1.5"/>
<path d="M5.31641 7.98608L7.20544 9.56028C8.8125 10.8995 9.61603 11.5691 10.5664 11.5691C11.5168 11.5691 12.3203 10.8995 13.9274 9.56028L15.8164 7.98608" stroke="#F5EFFC" stroke-width="1.5" stroke-linecap="round"/>
</svg>
