<svg width="22" height="22" viewBox="0 0 22 22" fill="none" xmlns="http://www.w3.org/2000/svg">
<path d="M1.81396 14.9861C1.81396 12.5112 1.81396 11.2738 2.58281 10.5049C3.35165 9.73608 4.58909 9.73608 7.06396 9.73608H14.064C16.5388 9.73608 17.7763 9.73608 18.5451 10.5049C19.314 11.2738 19.314 12.5112 19.314 14.9861C19.314 17.461 19.314 18.6984 18.5451 19.4672C17.7763 20.2361 16.5388 20.2361 14.064 20.2361H7.06396C4.58909 20.2361 3.35165 20.2361 2.58281 19.4672C1.81396 18.6984 1.81396 17.461 1.81396 14.9861Z" stroke="#F5EFFC" stroke-width="1.5"/>
<path d="M10.564 13.2361V16.7361" stroke="#F5EFFC" stroke-width="1.5" stroke-linecap="round"/>
<path d="M5.31396 9.73608V7.98608C5.31396 5.08659 7.66447 2.73608 10.564 2.73608C13.4635 2.73608 15.814 5.08659 15.814 7.98608V9.73608" stroke="#F5EFFC" stroke-width="1.5" stroke-linecap="round"/>
</svg>
