<svg width="23" height="23" viewBox="0 0 23 23" fill="none" xmlns="http://www.w3.org/2000/svg">
<g id="lucide:send" clip-path="url(#clip0_3829_686)">
<path id="Vector" d="M10.0995 12.2911C9.92532 12.1172 9.71772 11.9804 9.48923 11.8889L2.26136 8.99046C2.17506 8.95583 2.10142 8.89563 2.05032 8.81795C1.99922 8.74026 1.97311 8.6488 1.97549 8.55584C1.97787 8.46288 2.00863 8.37288 2.06364 8.29791C2.11865 8.22294 2.19528 8.16659 2.28324 8.13642L19.6009 2.21194C19.6817 2.18277 19.7691 2.17721 19.8529 2.1959C19.9367 2.21458 20.0135 2.25675 20.0742 2.31747C20.1349 2.37819 20.1771 2.45494 20.1958 2.53875C20.2145 2.62256 20.2089 2.70996 20.1797 2.79072L14.2552 20.1084C14.2251 20.1964 14.1687 20.273 14.0938 20.328C14.0188 20.383 13.9288 20.4138 13.8358 20.4162C13.7429 20.4186 13.6514 20.3924 13.5737 20.3413C13.496 20.2902 13.4358 20.2166 13.4012 20.1303L10.5028 12.9006C10.4109 12.6723 10.2737 12.4649 10.0995 12.2911ZM10.0995 12.2911L20.0713 2.32132" stroke="#F0E7FB" stroke-width="2" stroke-linecap="round" stroke-linejoin="round"/>
</g>
<defs>
<clipPath id="clip0_3829_686">
<rect width="21.875" height="21.875" fill="white" transform="translate(0.152344 0.364258)"/>
</clipPath>
</defs>
</svg>
