<svg width="25" height="25" viewBox="0 0 25 25" fill="none" xmlns="http://www.w3.org/2000/svg">
<g id="Menu Dots 2">
<g id="Vector">
<path d="M12.7812 7.5C11.6767 7.5 10.7812 6.60457 10.7812 5.5C10.7812 4.39543 11.6767 3.5 12.7812 3.5C13.8858 3.5 14.7812 4.39543 14.7812 5.5C14.7812 6.60457 13.8858 7.5 12.7812 7.5Z" fill="#9860E4"/>
<path d="M12.7812 14.5C11.6767 14.5 10.7812 13.6046 10.7812 12.5C10.7812 11.3954 11.6767 10.5 12.7812 10.5C13.8858 10.5 14.7812 11.3954 14.7812 12.5C14.7812 13.6046 13.8858 14.5 12.7812 14.5Z" fill="#9860E4"/>
<path d="M12.7812 21.5C11.6767 21.5 10.7812 20.6046 10.7812 19.5C10.7812 18.3954 11.6767 17.5 12.7812 17.5C13.8858 17.5 14.7812 18.3954 14.7812 19.5C14.7812 20.6046 13.8858 21.5 12.7812 21.5Z" fill="#9860E4"/>
</g>
</g>
</svg>
