<svg width="101" height="100" viewBox="0 0 101 100" fill="none" xmlns="http://www.w3.org/2000/svg">
<g id="mic">
<circle id="Ellipse 1" cx="50.3622" cy="49.9999" r="43.6893" fill="url(#paint0_linear_3031_6510)" fill-opacity="0.9"/>
<path id="mic_none" d="M61.6051 50.7468C61.7561 49.7574 62.5494 48.941 63.5502 48.941C64.551 48.941 65.3757 49.7557 65.2524 50.7489C64.8934 53.6403 63.6549 56.2305 61.5368 58.5192C59.4554 60.7728 56.9968 62.2708 54.161 63.0132C53.2042 63.2637 52.4764 64.09 52.4764 65.0791V68.4163C52.4764 69.5209 51.581 70.4163 50.4764 70.4163H50.2482C49.1436 70.4163 48.2482 69.5209 48.2482 68.4163V65.0791C48.2482 64.09 47.5206 63.2635 46.5634 63.0139C43.7175 62.2716 41.2254 60.7734 39.0871 58.5192C37.0248 56.2305 35.8189 53.6405 35.4693 50.7491C35.3492 49.7555 36.1736 48.941 37.1744 48.941C38.1752 48.941 38.9689 49.7572 39.1156 50.7471C39.4663 53.1131 40.5306 55.1324 42.3086 56.8052C44.5905 58.8217 47.2751 59.8299 50.3623 59.8299C53.4496 59.8299 56.1006 58.8217 58.3153 56.8052C60.1473 55.1323 61.2439 53.1128 61.6051 50.7468ZM47.7449 35.834V49.1427C47.7449 49.8148 47.9798 50.4198 48.4496 50.9575C48.9865 51.428 49.6241 51.6633 50.3623 51.6633C51.0334 51.6633 51.6039 51.428 52.0737 50.9575C52.6106 50.487 52.8791 49.882 52.8791 49.1427L52.9798 35.834C52.9798 35.0947 52.7113 34.4897 52.1744 34.0192C51.6375 33.4815 51.0334 33.2126 50.3623 33.2126C49.6912 33.2126 49.0871 33.4815 48.5502 34.0192C48.0133 34.4897 47.7449 35.0947 47.7449 35.834ZM54.8925 53.4781C53.6173 54.7552 52.1073 55.3937 50.3623 55.3937C48.6173 55.3937 47.1073 54.7552 45.8321 53.4781C44.5569 52.201 43.9194 50.6886 43.9194 48.941V36.0357C43.9194 34.2881 44.5569 32.7757 45.8321 31.4986C47.1073 30.2216 48.6173 29.583 50.3623 29.583C52.1073 29.583 53.6173 30.2216 54.8925 31.4986C56.1677 32.7757 56.8053 34.2881 56.8053 36.0357V48.941C56.8053 50.6886 56.1677 52.201 54.8925 53.4781Z" fill="#FEFEFF"/>
</g>
<defs>
<linearGradient id="paint0_linear_3031_6510" x1="110.63" y1="-53.0047" x2="70.452" y2="127.795" gradientUnits="userSpaceOnUse">
<stop stop-color="#462C74"/>
<stop offset="1" stop-color="#361545"/>
</linearGradient>
</defs>
</svg>
