<svg width="31" height="31" viewBox="0 0 31 31" fill="none" xmlns="http://www.w3.org/2000/svg">
<path d="M20.9317 3.27344C19.8875 2.73602 18.5293 3.60319 15.8129 5.33753L15.1101 5.78622C14.3382 6.27906 13.9522 6.52548 13.5191 6.59621C13.0859 6.66693 12.6546 6.55394 11.7919 6.32797L11.0066 6.12224C7.97088 5.32704 6.45303 4.92943 5.58394 5.77923C4.71485 6.62902 5.07008 8.16343 5.78054 11.2322L5.96434 12.0262C6.16623 12.8982 6.26718 13.3343 6.18521 13.7672C6.10325 14.2002 5.84766 14.5811 5.33647 15.3428L4.87107 16.0364C3.07217 18.7171 2.17272 20.0575 2.67977 21.1201C3.18683 22.1827 4.76458 22.2639 7.92007 22.4261L8.73646 22.4681C9.63314 22.5142 10.0815 22.5373 10.464 22.7342C10.8465 22.931 11.1199 23.2794 11.6666 23.9762L12.1643 24.6106C14.0882 27.0625 15.0502 28.2885 16.2327 28.0955C17.4151 27.9024 18.035 26.4182 19.2748 23.4497L19.5955 22.6817C19.9478 21.8381 20.1239 21.4163 20.4423 21.105C20.7607 20.7937 21.1852 20.6282 22.0343 20.297L22.8073 19.9955C25.7952 18.8302 27.2892 18.2476 27.513 17.0656C27.7367 15.8837 26.5421 14.8852 24.1528 12.8883L23.5346 12.3717C22.8557 11.8042 22.5162 11.5205 22.3304 11.1312C22.1447 10.742 22.1337 10.2913 22.1118 9.38983L22.0918 8.56914C22.0145 5.39695 21.9759 3.81086 20.9317 3.27344Z" fill="#8956CD"/>
<path d="M24.4525 23.7023C24.0863 23.3362 23.4928 23.3362 23.1266 23.7023C22.7605 24.0684 22.7605 24.662 23.1266 25.0281L25.6266 27.5281C25.9928 27.8943 26.5863 27.8943 26.9525 27.5281C27.3186 27.162 27.3186 26.5684 26.9525 26.2023L24.4525 23.7023Z" fill="#8956CD"/>
</svg>
