<svg width="25" height="25" viewBox="0 0 25 25" fill="none" xmlns="http://www.w3.org/2000/svg">
<g id="Pen New Square">
<path id="Vector" d="M22.3799 10.9375V12.4375C22.3799 17.1515 22.3799 19.5086 20.9154 20.973C19.451 22.4375 17.0939 22.4375 12.3799 22.4375C7.66584 22.4375 5.30882 22.4375 3.84435 20.973C2.37988 19.5086 2.37988 17.1515 2.37988 12.4375C2.37988 7.72345 2.37988 5.36643 3.84435 3.90197C5.30882 2.4375 7.66584 2.4375 12.3799 2.4375H13.8799" stroke="#F5EFFC" stroke-width="1.5" stroke-linecap="round"/>
<path id="Vector_2" d="M17.0319 3.89256L17.6807 3.24374C18.7557 2.16875 20.4986 2.16875 21.5736 3.24374C22.6486 4.31874 22.6486 6.06165 21.5736 7.13664L20.9248 7.78545M17.0319 3.89256C17.0319 3.89256 17.113 5.27129 18.3296 6.48782C19.5461 7.70435 20.9248 7.78545 20.9248 7.78545M17.0319 3.89256L11.0671 9.85743C10.663 10.2614 10.461 10.4634 10.2873 10.6862C10.0824 10.9489 9.90668 11.2332 9.76332 11.534C9.6418 11.789 9.55146 12.06 9.37078 12.6021L8.7923 14.3375M20.9248 7.78545L14.96 13.7503C14.5559 14.1543 14.3539 14.3563 14.1312 14.5301C13.8685 14.735 13.5842 14.9107 13.2834 15.0541C13.0284 15.1756 12.7573 15.2659 12.2153 15.4466L10.4799 16.0251M10.4799 16.0251L9.35697 16.3994C9.09023 16.4883 8.79614 16.4189 8.59732 16.2201C8.39851 16.0212 8.32908 15.7272 8.418 15.4604L8.7923 14.3375M10.4799 16.0251L8.7923 14.3375" stroke="#F5EFFC" stroke-width="1.5"/>
</g>
</svg>
