<svg width="22" height="21" viewBox="0 0 22 21" fill="none" xmlns="http://www.w3.org/2000/svg">
<g id="Pen 2">
<path id="Vector" fill-rule="evenodd" clip-rule="evenodd" d="M12.8754 2.45851C14.2067 1.21044 16.3651 1.21044 17.6964 2.45851C19.0277 3.70658 19.0277 5.7301 17.6964 6.97817L11.0516 13.2076C10.6771 13.5588 10.4484 13.7732 10.1935 13.9596C9.89319 14.1792 9.56824 14.3675 9.22441 14.5211C8.93258 14.6515 8.62571 14.7474 8.12323 14.9044L5.78466 15.6352L5.2232 15.8106C4.72065 15.9677 4.16658 15.8451 3.792 15.4939C3.41741 15.1427 3.28661 14.6233 3.45413 14.1521L4.4208 11.4334C4.58827 10.9623 4.69054 10.6746 4.82962 10.401C4.99348 10.0787 5.19431 9.77401 5.42856 9.49246C5.62738 9.25348 5.85612 9.03906 6.23066 8.68796L12.8754 2.45851ZM5.75438 14.3476L5.01469 13.6541L5.65206 11.8615C5.83763 11.3396 5.91428 11.1274 6.01444 10.9304C6.13729 10.6887 6.28786 10.4603 6.46348 10.2492C6.60668 10.0771 6.77486 9.91793 7.18981 9.52891L12.3444 4.69647C12.5572 5.19686 12.9172 5.80079 13.5242 6.36991C14.1313 6.93903 14.7755 7.27652 15.3092 7.47599L10.1546 12.3084C9.73967 12.6974 9.56989 12.8551 9.3863 12.9894C9.16114 13.154 8.91752 13.2952 8.65974 13.4103C8.44956 13.5042 8.22321 13.5761 7.66649 13.7501L5.75438 14.3476ZM16.3551 6.49553C16.2467 6.47323 16.1112 6.43968 15.9572 6.38958C15.5337 6.25183 14.9766 5.99135 14.4523 5.49984C13.928 5.00833 13.6502 4.48605 13.5033 4.089C13.4498 3.9446 13.414 3.81759 13.3902 3.71601L13.8035 3.32859C14.6222 2.56104 15.9496 2.56104 16.7683 3.32859C17.587 4.09613 17.587 5.34056 16.7683 6.1081L16.3551 6.49553ZM3.38234 18.5439C3.38234 18.2042 3.67616 17.9287 4.03859 17.9287H18.0386V19.1592H4.03859C3.67616 19.1592 3.38234 18.8837 3.38234 18.5439Z" fill="#F5EFFC"/>
</g>
</svg>
