<svg width="25" height="25" viewBox="0 0 25 25" fill="none" xmlns="http://www.w3.org/2000/svg">
<g id="Pen New Square">
<path id="Vector" d="M22.1484 11.1401V12.6401C22.1484 17.3542 22.1484 19.7112 20.684 21.1757C19.2195 22.6401 16.8625 22.6401 12.1484 22.6401C7.43439 22.6401 5.07737 22.6401 3.6129 21.1757C2.14844 19.7112 2.14844 17.3542 2.14844 12.6401C2.14844 7.92609 2.14844 5.56907 3.6129 4.1046C5.07737 2.64014 7.43439 2.64014 12.1484 2.64014H13.6484" stroke="#F5EFFC" stroke-width="1.5" stroke-linecap="round"/>
<path id="Vector_2" d="M16.8005 4.0952L17.4493 3.44638C18.5243 2.37139 20.2672 2.37139 21.3422 3.44638C22.4172 4.52137 22.4172 6.26428 21.3422 7.33928L20.6934 7.98809M16.8005 4.0952C16.8005 4.0952 16.8816 5.47393 18.0981 6.69046C19.3146 7.90699 20.6934 7.98809 20.6934 7.98809M16.8005 4.0952L10.8356 10.0601C10.4316 10.4641 10.2296 10.6661 10.0559 10.8888C9.85093 11.1516 9.67523 11.4359 9.53188 11.7367C9.41035 11.9916 9.32001 12.2627 9.13933 12.8047L8.56086 14.5401M20.6934 7.98809L14.7285 13.953C14.3245 14.357 14.1225 14.559 13.8998 14.7327C13.637 14.9376 13.3527 15.1133 13.0519 15.2567C12.7969 15.3782 12.5259 15.4686 11.9839 15.6492L10.2484 16.2277M10.2484 16.2277L9.12553 16.602C8.85878 16.6909 8.5647 16.6215 8.36588 16.4227C8.16706 16.2239 8.09764 15.9298 8.18655 15.663L8.56086 14.5401M10.2484 16.2277L8.56086 14.5401" stroke="#F5EFFC" stroke-width="1.5"/>
</g>
</svg>
