<svg width="25" height="25" viewBox="0 0 25 25" fill="none" xmlns="http://www.w3.org/2000/svg">
<g id="Share">
<path id="Vector" d="M9.375 12.5C9.375 13.8807 8.25571 15 6.875 15C5.49429 15 4.375 13.8807 4.375 12.5C4.375 11.1193 5.49429 10 6.875 10C8.25571 10 9.375 11.1193 9.375 12.5Z" stroke="#F5EFFC" stroke-width="1.5"/>
<path id="Vector_2" d="M14.375 7L9.375 10.5" stroke="#F5EFFC" stroke-width="1.5" stroke-linecap="round"/>
<path id="Vector_3" d="M14.375 18L9.375 14.5" stroke="#F5EFFC" stroke-width="1.5" stroke-linecap="round"/>
<path id="Vector_4" d="M19.375 19C19.375 20.3807 18.2557 21.5 16.875 21.5C15.4943 21.5 14.375 20.3807 14.375 19C14.375 17.6193 15.4943 16.5 16.875 16.5C18.2557 16.5 19.375 17.6193 19.375 19Z" stroke="#F5EFFC" stroke-width="1.5"/>
<path id="Vector_5" d="M19.375 6C19.375 7.38071 18.2557 8.5 16.875 8.5C15.4943 8.5 14.375 7.38071 14.375 6C14.375 4.61929 15.4943 3.5 16.875 3.5C18.2557 3.5 19.375 4.61929 19.375 6Z" stroke="#F5EFFC" stroke-width="1.5"/>
</g>
</svg>
