<svg width="25" height="25" viewBox="0 0 25 25" fill="none" xmlns="http://www.w3.org/2000/svg">
<g id="Sidebar Minimalistic">
<path id="Vector" d="M2.15601 11.3264C2.15601 7.13613 2.15601 5.041 3.32758 3.73925C4.49915 2.4375 6.38477 2.4375 10.156 2.4375H14.156C17.9272 2.4375 19.8129 2.4375 20.9844 3.73925C22.156 5.041 22.156 7.13613 22.156 11.3264V13.5486C22.156 17.7389 22.156 19.834 20.9844 21.1358C19.8129 22.4375 17.9272 22.4375 14.156 22.4375H10.156C6.38477 22.4375 4.49915 22.4375 3.32758 21.1358C2.15601 19.834 2.15601 17.7389 2.15601 13.5486V11.3264Z" stroke="#F5EFFC" stroke-width="1.5"/>
<path id="Vector_2" d="M15.156 22.0593L15.156 3.43751" stroke="#F5EFFC" stroke-width="1.5" stroke-linecap="round"/>
</g>
</svg>
