<svg width="24" height="24" viewBox="0 0 24 24" fill="none" xmlns="http://www.w3.org/2000/svg">
<path d="M8.10627 18.2473C5.29819 16.0838 2 13.5427 2 9.13759C2 4.27465 7.50016 0.825952 12 5.50112L14 7.49977C14.2929 7.79261 14.7678 7.79252 15.0607 7.49957C15.3535 7.20663 15.3534 6.73175 15.0605 6.43891L13.1285 4.50761C17.3685 1.40357 22 4.67513 22 9.13759C22 13.5427 18.7018 16.0838 15.8937 18.2473C15.6019 18.4722 15.3153 18.693 15.0383 18.9114C14 19.7299 13 20.5005 12 20.5005C11 20.5005 10 19.7299 8.96173 18.9114C8.68471 18.693 8.39814 18.4722 8.10627 18.2473Z" fill="#F5EFFC"/>
</svg>
