<svg width="31" height="31" viewBox="0 0 31 31" fill="none" xmlns="http://www.w3.org/2000/svg">
<path d="M15.8129 5.33753C18.5293 3.60319 19.8875 2.73602 20.9317 3.27344C21.9759 3.81086 22.0145 5.39695 22.0918 8.56914L22.1118 9.38982C22.1337 10.2913 22.1447 10.742 22.3304 11.1312C22.5162 11.5205 22.8557 11.8042 23.5346 12.3717L24.1528 12.8883C26.5421 14.8852 27.7367 15.8837 27.513 17.0656C27.2892 18.2476 25.7952 18.8302 22.8073 19.9955L22.0343 20.297C21.1852 20.6282 20.7607 20.7937 20.4423 21.105C20.1239 21.4163 19.9478 21.8381 19.5955 22.6817L19.2748 23.4497C18.035 26.4182 17.4151 27.9024 16.2327 28.0955C15.0502 28.2885 14.0882 27.0625 12.1643 24.6106L11.6666 23.9762C11.1199 23.2794 10.8465 22.931 10.464 22.7342C10.0815 22.5373 9.63315 22.5142 8.73646 22.4681L7.92009 22.4261C4.76458 22.2639 3.18683 22.1827 2.67977 21.1201C2.17272 20.0575 3.07217 18.7171 4.87107 16.0364L5.33646 15.3429C5.84765 14.5811 6.10325 14.2002 6.18521 13.7672C6.26718 13.3343 6.16623 12.8982 5.96434 12.0262L5.78054 11.2322C5.07008 8.16343 4.71485 6.62902 5.58394 5.77923C6.45304 4.92943 7.97088 5.32704 11.0066 6.12224L11.7919 6.32797C12.6546 6.55394 13.0859 6.66693 13.5191 6.59621C13.9522 6.52548 14.3382 6.27906 15.1101 5.78622L15.8129 5.33753Z" stroke="#8956CD" stroke-width="1.5"/>
<path d="M24.3199 23.8349C24.027 23.542 23.5521 23.542 23.2592 23.8349C22.9663 24.1278 22.9663 24.6027 23.2592 24.8956L24.3199 23.8349ZM25.7592 27.3956C26.0521 27.6885 26.527 27.6885 26.8199 27.3956C27.1128 27.1027 27.1128 26.6278 26.8199 26.3349L25.7592 27.3956ZM23.2592 24.8956L25.7592 27.3956L26.8199 26.3349L24.3199 23.8349L23.2592 24.8956Z" fill="#8956CD"/>
</svg>
