<svg width="31" height="31" viewBox="0 0 31 31" fill="none" xmlns="http://www.w3.org/2000/svg">
<path fill-rule="evenodd" clip-rule="evenodd" d="M3.43855 10.3937C2.78955 11.5793 2.78955 13.0096 2.78955 15.8701V17.7714C2.78955 22.6475 2.78955 25.0856 4.25402 26.6004C5.71848 28.1152 8.07551 28.1152 12.7895 28.1152H17.7896C22.5036 28.1152 24.8606 28.1152 26.3251 26.6004C27.7896 25.0856 27.7896 22.6475 27.7896 17.7714V15.8701C27.7896 13.0096 27.7896 11.5793 27.1405 10.3937C26.4915 9.20799 25.3059 8.47213 22.9345 7.00039L20.4345 5.44882C17.9278 3.8931 16.6745 3.11523 15.2896 3.11523C13.9046 3.11523 12.6513 3.8931 10.1446 5.44882L7.64459 7.00039C5.27323 8.47213 4.08755 9.20799 3.43855 10.3937ZM12.0978 19.8621C11.6819 19.5538 11.0947 19.641 10.7864 20.057C10.4781 20.4729 10.5653 21.0601 10.9813 21.3684C12.1968 22.2694 13.6833 22.8027 15.2896 22.8027C16.8958 22.8027 18.3823 22.2694 19.5978 21.3684C20.0138 21.0601 20.101 20.4729 19.7927 20.057C19.4844 19.641 18.8972 19.5538 18.4813 19.8621C17.5709 20.5369 16.4719 20.9277 15.2896 20.9277C14.1072 20.9277 13.0082 20.5369 12.0978 19.8621Z" fill="#8956CD"/>
</svg>
